<svg width="294" height="230" viewBox="0 0 294 230" fill="none" xmlns="http://www.w3.org/2000/svg">
<path d="M3.18658 187.57V191.99H8.00439V193.412H3.18658V197.965H8.57342V199.387H1.46052V186.148H8.57342V187.57H3.18658ZM16.61 199.387L14.1442 195.518L11.7732 199.387H9.97125L13.3285 194.228L9.97125 188.993H11.9249L14.3907 192.843L16.7427 188.993H18.5447L15.2064 194.133L18.5636 199.387H16.61ZM22.367 190.415V196.542C22.367 197.048 22.4745 197.408 22.6894 197.623C22.9044 197.826 23.2774 197.927 23.8085 197.927H25.0794V199.387H23.524C22.563 199.387 21.8422 199.166 21.3617 198.723C20.8812 198.281 20.6409 197.554 20.6409 196.542V190.415H19.2942V188.993H20.6409V186.375H22.367V188.993H25.0794V190.415H22.367ZM36.6546 193.792C36.6546 194.12 36.6356 194.468 36.5977 194.835H28.2898C28.353 195.859 28.7008 196.662 29.333 197.244C29.9779 197.813 30.7556 198.097 31.6661 198.097C32.4121 198.097 33.0317 197.927 33.5249 197.585C34.0307 197.231 34.3848 196.763 34.5871 196.182H36.4459C36.1677 197.181 35.6113 197.996 34.7768 198.628C33.9422 199.248 32.9053 199.558 31.6661 199.558C30.6797 199.558 29.7946 199.337 29.0106 198.894C28.2392 198.451 27.6322 197.826 27.1897 197.016C26.7471 196.194 26.5258 195.246 26.5258 194.171C26.5258 193.096 26.7408 192.154 27.1707 191.345C27.6006 190.536 28.2013 189.916 28.9726 189.486C29.7566 189.043 30.6544 188.822 31.6661 188.822C32.6524 188.822 33.5249 189.037 34.2836 189.467C35.0423 189.897 35.624 190.491 36.0286 191.25C36.4459 191.996 36.6546 192.843 36.6546 193.792ZM34.8716 193.431C34.8716 192.774 34.7262 192.211 34.4353 191.743C34.1445 191.263 33.7462 190.902 33.2404 190.662C32.7472 190.409 32.1972 190.283 31.5902 190.283C30.7177 190.283 29.9716 190.561 29.352 191.117C28.745 191.674 28.3973 192.445 28.3088 193.431H34.8716ZM43.9973 188.803C45.2618 188.803 46.2861 189.189 47.0701 189.96C47.8541 190.719 48.2461 191.819 48.2461 193.261V199.387H46.539V193.507C46.539 192.47 46.2798 191.68 45.7613 191.136C45.2429 190.58 44.5347 190.302 43.6369 190.302C42.7265 190.302 41.9994 190.586 41.4556 191.155C40.9245 191.724 40.659 192.552 40.659 193.64V199.387H38.9329V188.993H40.659V190.472C41.0004 189.941 41.462 189.53 42.0436 189.239C42.638 188.949 43.2892 188.803 43.9973 188.803ZM54.7454 199.558C53.9487 199.558 53.2343 199.425 52.602 199.16C51.9697 198.881 51.4703 198.502 51.1035 198.022C50.7368 197.528 50.5345 196.966 50.4966 196.333H52.2795C52.3301 196.852 52.5704 197.275 53.0003 197.604C53.4429 197.933 54.0183 198.097 54.7264 198.097C55.3839 198.097 55.9024 197.952 56.2817 197.661C56.6611 197.37 56.8508 197.004 56.8508 196.561C56.8508 196.106 56.6485 195.771 56.2438 195.556C55.8392 195.328 55.2132 195.107 54.366 194.892C53.5946 194.69 52.9624 194.487 52.4692 194.285C51.9887 194.07 51.5714 193.76 51.2174 193.355C50.8759 192.938 50.7052 192.394 50.7052 191.724C50.7052 191.193 50.8633 190.706 51.1794 190.264C51.4955 189.821 51.9444 189.473 52.5261 189.22C53.1078 188.955 53.7717 188.822 54.5177 188.822C55.6685 188.822 56.5979 189.113 57.306 189.695C58.0141 190.276 58.3935 191.073 58.4441 192.085H56.718C56.6801 191.541 56.4588 191.105 56.0541 190.776C55.6621 190.447 55.131 190.283 54.4608 190.283C53.8412 190.283 53.3481 190.415 52.9814 190.681C52.6146 190.947 52.4313 191.294 52.4313 191.724C52.4313 192.066 52.5388 192.35 52.7537 192.578C52.9814 192.793 53.2595 192.97 53.5883 193.109C53.9297 193.235 54.3976 193.381 54.9919 193.545C55.738 193.747 56.345 193.95 56.8128 194.152C57.2807 194.342 57.679 194.633 58.0078 195.025C58.3492 195.417 58.5263 195.929 58.5389 196.561C58.5389 197.13 58.3808 197.642 58.0647 198.097C57.7486 198.553 57.2997 198.913 56.718 199.179C56.149 199.431 55.4914 199.558 54.7454 199.558ZM61.867 187.305C61.5382 187.305 61.26 187.191 61.0324 186.963C60.8048 186.736 60.691 186.458 60.691 186.129C60.691 185.8 60.8048 185.522 61.0324 185.294C61.26 185.067 61.5382 184.953 61.867 184.953C62.1831 184.953 62.4487 185.067 62.6636 185.294C62.8913 185.522 63.0051 185.8 63.0051 186.129C63.0051 186.458 62.8913 186.736 62.6636 186.963C62.4487 187.191 62.1831 187.305 61.867 187.305ZM62.7016 188.993V199.387H60.9755V188.993H62.7016ZM69.5128 197.794L72.7373 188.993H74.5772L70.4991 199.387H68.4885L64.4105 188.993H66.2693L69.5128 197.794ZM85.7595 193.792C85.7595 194.12 85.7406 194.468 85.7026 194.835H77.3948C77.458 195.859 77.8057 196.662 78.438 197.244C79.0829 197.813 79.8606 198.097 80.771 198.097C81.5171 198.097 82.1367 197.927 82.6299 197.585C83.1357 197.231 83.4897 196.763 83.6921 196.182H85.5509C85.2727 197.181 84.7163 197.996 83.8817 198.628C83.0471 199.248 82.0102 199.558 80.771 199.558C79.7847 199.558 78.8995 199.337 78.1155 198.894C77.3442 198.451 76.7372 197.826 76.2946 197.016C75.8521 196.194 75.6308 195.246 75.6308 194.171C75.6308 193.096 75.8457 192.154 76.2757 191.345C76.7056 190.536 77.3062 189.916 78.0776 189.486C78.8616 189.043 79.7594 188.822 80.771 188.822C81.7573 188.822 82.6299 189.037 83.3886 189.467C84.1473 189.897 84.729 190.491 85.1336 191.25C85.5509 191.996 85.7595 192.843 85.7595 193.792ZM83.9766 193.431C83.9766 192.774 83.8311 192.211 83.5403 191.743C83.2495 191.263 82.8511 190.902 82.3453 190.662C81.8522 190.409 81.3021 190.283 80.6951 190.283C79.8226 190.283 79.0766 190.561 78.457 191.117C77.85 191.674 77.5022 192.445 77.4137 193.431H83.9766ZM94.8208 190.909C95.1622 190.314 95.668 189.821 96.3382 189.429C97.021 189.024 97.8114 188.822 98.7092 188.822C99.6323 188.822 100.467 189.043 101.213 189.486C101.972 189.929 102.566 190.555 102.996 191.364C103.426 192.16 103.641 193.09 103.641 194.152C103.641 195.202 103.426 196.137 102.996 196.959C102.566 197.781 101.972 198.42 101.213 198.875C100.467 199.33 99.6323 199.558 98.7092 199.558C97.824 199.558 97.04 199.362 96.3572 198.97C95.687 198.565 95.1748 198.066 94.8208 197.471V204.319H93.0947V188.993H94.8208V190.909ZM101.877 194.152C101.877 193.368 101.719 192.685 101.403 192.104C101.086 191.522 100.657 191.079 100.113 190.776C99.5817 190.472 98.9937 190.321 98.3488 190.321C97.7165 190.321 97.1285 190.479 96.5848 190.795C96.0537 191.098 95.6237 191.547 95.295 192.142C94.9788 192.723 94.8208 193.4 94.8208 194.171C94.8208 194.955 94.9788 195.644 95.295 196.239C95.6237 196.82 96.0537 197.269 96.5848 197.585C97.1285 197.889 97.7165 198.04 98.3488 198.04C98.9937 198.04 99.5817 197.889 100.113 197.585C100.657 197.269 101.086 196.82 101.403 196.239C101.719 195.644 101.877 194.949 101.877 194.152ZM107.639 190.681C107.942 190.087 108.372 189.625 108.929 189.296C109.498 188.968 110.187 188.803 110.996 188.803V190.586H110.541C108.606 190.586 107.639 191.636 107.639 193.735V199.387H105.913V188.993H107.639V190.681ZM117.522 199.558C116.548 199.558 115.663 199.337 114.866 198.894C114.082 198.451 113.463 197.826 113.008 197.016C112.565 196.194 112.344 195.246 112.344 194.171C112.344 193.109 112.571 192.173 113.027 191.364C113.494 190.542 114.127 189.916 114.923 189.486C115.72 189.043 116.611 188.822 117.598 188.822C118.584 188.822 119.476 189.043 120.272 189.486C121.069 189.916 121.695 190.536 122.15 191.345C122.618 192.154 122.852 193.096 122.852 194.171C122.852 195.246 122.612 196.194 122.131 197.016C121.663 197.826 121.025 198.451 120.215 198.894C119.406 199.337 118.508 199.558 117.522 199.558ZM117.522 198.04C118.142 198.04 118.723 197.895 119.267 197.604C119.811 197.313 120.247 196.877 120.576 196.295C120.917 195.714 121.088 195.006 121.088 194.171C121.088 193.336 120.923 192.628 120.595 192.047C120.266 191.465 119.836 191.035 119.305 190.757C118.774 190.466 118.198 190.321 117.579 190.321C116.947 190.321 116.365 190.466 115.834 190.757C115.315 191.035 114.898 191.465 114.582 192.047C114.266 192.628 114.108 193.336 114.108 194.171C114.108 195.018 114.259 195.733 114.563 196.314C114.879 196.896 115.296 197.332 115.815 197.623C116.333 197.901 116.902 198.04 117.522 198.04ZM129.351 190.415H127.17V199.387H125.444V190.415H124.097V188.993H125.444V188.253C125.444 187.09 125.741 186.243 126.335 185.711C126.942 185.168 127.91 184.896 129.237 184.896V186.337C128.479 186.337 127.941 186.489 127.625 186.793C127.322 187.083 127.17 187.57 127.17 188.253V188.993H129.351V190.415ZM140.847 193.792C140.847 194.12 140.829 194.468 140.791 194.835H132.483C132.546 195.859 132.894 196.662 133.526 197.244C134.171 197.813 134.949 198.097 135.859 198.097C136.605 198.097 137.225 197.927 137.718 197.585C138.224 197.231 138.578 196.763 138.78 196.182H140.639C140.361 197.181 139.804 197.996 138.97 198.628C138.135 199.248 137.098 199.558 135.859 199.558C134.873 199.558 133.987 199.337 133.203 198.894C132.432 198.451 131.825 197.826 131.383 197.016C130.94 196.194 130.719 195.246 130.719 194.171C130.719 193.096 130.934 192.154 131.364 191.345C131.794 190.536 132.394 189.916 133.166 189.486C133.95 189.043 134.847 188.822 135.859 188.822C136.845 188.822 137.718 189.037 138.477 189.467C139.235 189.897 139.817 190.491 140.222 191.25C140.639 191.996 140.847 192.843 140.847 193.792ZM139.065 193.431C139.065 192.774 138.919 192.211 138.628 191.743C138.337 191.263 137.939 190.902 137.433 190.662C136.94 190.409 136.39 190.283 135.783 190.283C134.911 190.283 134.165 190.561 133.545 191.117C132.938 191.674 132.59 192.445 132.502 193.431H139.065ZM146.806 199.558C146.009 199.558 145.294 199.425 144.662 199.16C144.03 198.881 143.53 198.502 143.164 198.022C142.797 197.528 142.595 196.966 142.557 196.333H144.34C144.39 196.852 144.631 197.275 145.061 197.604C145.503 197.933 146.078 198.097 146.787 198.097C147.444 198.097 147.963 197.952 148.342 197.661C148.721 197.37 148.911 197.004 148.911 196.561C148.911 196.106 148.709 195.771 148.304 195.556C147.899 195.328 147.273 195.107 146.426 194.892C145.655 194.69 145.023 194.487 144.529 194.285C144.049 194.07 143.632 193.76 143.278 193.355C142.936 192.938 142.765 192.394 142.765 191.724C142.765 191.193 142.924 190.706 143.24 190.264C143.556 189.821 144.005 189.473 144.586 189.22C145.168 188.955 145.832 188.822 146.578 188.822C147.729 188.822 148.658 189.113 149.366 189.695C150.074 190.276 150.454 191.073 150.504 192.085H148.778C148.74 191.541 148.519 191.105 148.114 190.776C147.722 190.447 147.191 190.283 146.521 190.283C145.901 190.283 145.408 190.415 145.042 190.681C144.675 190.947 144.492 191.294 144.492 191.724C144.492 192.066 144.599 192.35 144.814 192.578C145.042 192.793 145.32 192.97 145.649 193.109C145.99 193.235 146.458 193.381 147.052 193.545C147.798 193.747 148.405 193.95 148.873 194.152C149.341 194.342 149.739 194.633 150.068 195.025C150.409 195.417 150.586 195.929 150.599 196.561C150.599 197.13 150.441 197.642 150.125 198.097C149.809 198.553 149.36 198.913 148.778 199.179C148.209 199.431 147.552 199.558 146.806 199.558ZM156.715 199.558C155.919 199.558 155.204 199.425 154.572 199.16C153.94 198.881 153.44 198.502 153.074 198.022C152.707 197.528 152.505 196.966 152.467 196.333H154.25C154.3 196.852 154.541 197.275 154.97 197.604C155.413 197.933 155.988 198.097 156.697 198.097C157.354 198.097 157.873 197.952 158.252 197.661C158.631 197.37 158.821 197.004 158.821 196.561C158.821 196.106 158.619 195.771 158.214 195.556C157.809 195.328 157.183 195.107 156.336 194.892C155.565 194.69 154.933 194.487 154.439 194.285C153.959 194.07 153.542 193.76 153.187 193.355C152.846 192.938 152.675 192.394 152.675 191.724C152.675 191.193 152.833 190.706 153.15 190.264C153.466 189.821 153.915 189.473 154.496 189.22C155.078 188.955 155.742 188.822 156.488 188.822C157.639 188.822 158.568 189.113 159.276 189.695C159.984 190.276 160.364 191.073 160.414 192.085H158.688C158.65 191.541 158.429 191.105 158.024 190.776C157.632 190.447 157.101 190.283 156.431 190.283C155.811 190.283 155.318 190.415 154.951 190.681C154.585 190.947 154.401 191.294 154.401 191.724C154.401 192.066 154.509 192.35 154.724 192.578C154.951 192.793 155.23 192.97 155.558 193.109C155.9 193.235 156.368 193.381 156.962 193.545C157.708 193.747 158.315 193.95 158.783 194.152C159.251 194.342 159.649 194.633 159.978 195.025C160.319 195.417 160.496 195.929 160.509 196.561C160.509 197.13 160.351 197.642 160.035 198.097C159.719 198.553 159.27 198.913 158.688 199.179C158.119 199.431 157.462 199.558 156.715 199.558ZM163.837 187.305C163.508 187.305 163.23 187.191 163.003 186.963C162.775 186.736 162.661 186.458 162.661 186.129C162.661 185.8 162.775 185.522 163.003 185.294C163.23 185.067 163.508 184.953 163.837 184.953C164.153 184.953 164.419 185.067 164.634 185.294C164.861 185.522 164.975 185.8 164.975 186.129C164.975 186.458 164.861 186.736 164.634 186.963C164.419 187.191 164.153 187.305 163.837 187.305ZM164.672 188.993V199.387H162.946V188.993H164.672ZM172.147 199.558C171.173 199.558 170.288 199.337 169.491 198.894C168.707 198.451 168.088 197.826 167.632 197.016C167.19 196.194 166.969 195.246 166.969 194.171C166.969 193.109 167.196 192.173 167.651 191.364C168.119 190.542 168.752 189.916 169.548 189.486C170.345 189.043 171.236 188.822 172.223 188.822C173.209 188.822 174.1 189.043 174.897 189.486C175.694 189.916 176.32 190.536 176.775 191.345C177.243 192.154 177.477 193.096 177.477 194.171C177.477 195.246 177.236 196.194 176.756 197.016C176.288 197.826 175.65 198.451 174.84 198.894C174.031 199.337 173.133 199.558 172.147 199.558ZM172.147 198.04C172.766 198.04 173.348 197.895 173.892 197.604C174.436 197.313 174.872 196.877 175.201 196.295C175.542 195.714 175.713 195.006 175.713 194.171C175.713 193.336 175.548 192.628 175.22 192.047C174.891 191.465 174.461 191.035 173.93 190.757C173.399 190.466 172.823 190.321 172.204 190.321C171.571 190.321 170.99 190.466 170.459 190.757C169.94 191.035 169.523 191.465 169.207 192.047C168.891 192.628 168.733 193.336 168.733 194.171C168.733 195.018 168.884 195.733 169.188 196.314C169.504 196.896 169.921 197.332 170.44 197.623C170.958 197.901 171.527 198.04 172.147 198.04ZM184.811 188.803C186.075 188.803 187.099 189.189 187.883 189.96C188.667 190.719 189.059 191.819 189.059 193.261V199.387H187.352V193.507C187.352 192.47 187.093 191.68 186.575 191.136C186.056 190.58 185.348 190.302 184.45 190.302C183.54 190.302 182.813 190.586 182.269 191.155C181.738 191.724 181.472 192.552 181.472 193.64V199.387H179.746V188.993H181.472V190.472C181.814 189.941 182.275 189.53 182.857 189.239C183.451 188.949 184.102 188.803 184.811 188.803ZM191.234 194.152C191.234 193.09 191.449 192.16 191.879 191.364C192.309 190.555 192.897 189.929 193.643 189.486C194.402 189.043 195.242 188.822 196.166 188.822C197.076 188.822 197.866 189.018 198.537 189.41C199.207 189.802 199.706 190.295 200.035 190.89V188.993H201.78V199.387H200.035V197.452C199.694 198.059 199.181 198.565 198.499 198.97C197.828 199.362 197.044 199.558 196.147 199.558C195.224 199.558 194.389 199.33 193.643 198.875C192.897 198.42 192.309 197.781 191.879 196.959C191.449 196.137 191.234 195.202 191.234 194.152ZM200.035 194.171C200.035 193.387 199.877 192.704 199.561 192.123C199.245 191.541 198.815 191.098 198.271 190.795C197.74 190.479 197.152 190.321 196.507 190.321C195.862 190.321 195.274 190.472 194.743 190.776C194.212 191.079 193.788 191.522 193.472 192.104C193.156 192.685 192.998 193.368 192.998 194.152C192.998 194.949 193.156 195.644 193.472 196.239C193.788 196.82 194.212 197.269 194.743 197.585C195.274 197.889 195.862 198.04 196.507 198.04C197.152 198.04 197.74 197.889 198.271 197.585C198.815 197.269 199.245 196.82 199.561 196.239C199.877 195.644 200.035 194.955 200.035 194.171ZM206.423 185.351V199.387H204.697V185.351H206.423ZM219.486 188.803C220.75 188.803 221.775 189.189 222.559 189.96C223.343 190.719 223.735 191.819 223.735 193.261V199.387H222.028V193.507C222.028 192.47 221.768 191.68 221.25 191.136C220.732 190.58 220.023 190.302 219.126 190.302C218.215 190.302 217.488 190.586 216.944 191.155C216.413 191.724 216.148 192.552 216.148 193.64V199.387H214.422V188.993H216.148V190.472C216.489 189.941 216.951 189.53 217.532 189.239C218.127 188.949 218.778 188.803 219.486 188.803ZM236.038 193.792C236.038 194.12 236.019 194.468 235.981 194.835H227.673C227.737 195.859 228.084 196.662 228.717 197.244C229.362 197.813 230.139 198.097 231.05 198.097C231.796 198.097 232.415 197.927 232.908 197.585C233.414 197.231 233.768 196.763 233.971 196.182H235.83C235.551 197.181 234.995 197.996 234.16 198.628C233.326 199.248 232.289 199.558 231.05 199.558C230.063 199.558 229.178 199.337 228.394 198.894C227.623 198.451 227.016 197.826 226.573 197.016C226.131 196.194 225.909 195.246 225.909 194.171C225.909 193.096 226.124 192.154 226.554 191.345C226.984 190.536 227.585 189.916 228.356 189.486C229.14 189.043 230.038 188.822 231.05 188.822C232.036 188.822 232.908 189.037 233.667 189.467C234.426 189.897 235.008 190.491 235.412 191.25C235.83 191.996 236.038 192.843 236.038 193.792ZM234.255 193.431C234.255 192.774 234.11 192.211 233.819 191.743C233.528 191.263 233.13 190.902 232.624 190.662C232.131 190.409 231.581 190.283 230.974 190.283C230.101 190.283 229.355 190.561 228.736 191.117C228.129 191.674 227.781 192.445 227.692 193.431H234.255ZM240.422 190.415V196.542C240.422 197.048 240.529 197.408 240.744 197.623C240.959 197.826 241.332 197.927 241.863 197.927H243.134V199.387H241.579C240.618 199.387 239.897 199.166 239.417 198.723C238.936 198.281 238.696 197.554 238.696 196.542V190.415H237.349V188.993H238.696V186.375H240.422V188.993H243.134V190.415H240.422ZM259.072 188.993L255.829 199.387H254.046L251.542 191.136L249.038 199.387H247.255L243.993 188.993H245.757L248.147 197.718L250.726 188.993H252.49L255.013 197.737L257.365 188.993H259.072ZM265.318 199.558C264.345 199.558 263.46 199.337 262.663 198.894C261.879 198.451 261.259 197.826 260.804 197.016C260.362 196.194 260.14 195.246 260.14 194.171C260.14 193.109 260.368 192.173 260.823 191.364C261.291 190.542 261.923 189.916 262.72 189.486C263.516 189.043 264.408 188.822 265.394 188.822C266.381 188.822 267.272 189.043 268.069 189.486C268.865 189.916 269.491 190.536 269.947 191.345C270.414 192.154 270.648 193.096 270.648 194.171C270.648 195.246 270.408 196.194 269.928 197.016C269.46 197.826 268.821 198.451 268.012 198.894C267.203 199.337 266.305 199.558 265.318 199.558ZM265.318 198.04C265.938 198.04 266.52 197.895 267.063 197.604C267.607 197.313 268.043 196.877 268.372 196.295C268.714 195.714 268.884 195.006 268.884 194.171C268.884 193.336 268.72 192.628 268.391 192.047C268.062 191.465 267.632 191.035 267.101 190.757C266.57 190.466 265.995 190.321 265.375 190.321C264.743 190.321 264.161 190.466 263.63 190.757C263.112 191.035 262.695 191.465 262.378 192.047C262.062 192.628 261.904 193.336 261.904 194.171C261.904 195.018 262.056 195.733 262.359 196.314C262.676 196.896 263.093 197.332 263.611 197.623C264.13 197.901 264.699 198.04 265.318 198.04ZM274.644 190.681C274.947 190.087 275.377 189.625 275.934 189.296C276.503 188.968 277.192 188.803 278.001 188.803V190.586H277.546C275.611 190.586 274.644 191.636 274.644 193.735V199.387H272.918V188.993H274.644V190.681ZM285.798 199.387L281.72 194.797V199.387H279.994V185.351H281.72V193.602L285.722 188.993H288.131L283.237 194.171L288.15 199.387H285.798ZM31.1566 218.152C31.1566 217.09 31.3716 216.16 31.8015 215.364C32.2314 214.555 32.8194 213.929 33.5655 213.486C34.3242 213.043 35.1651 212.822 36.0882 212.822C36.9987 212.822 37.789 213.018 38.4592 213.41C39.1294 213.802 39.6289 214.295 39.9576 214.89V212.993H41.7027V223.387H39.9576V221.452C39.6162 222.059 39.1041 222.565 38.4212 222.97C37.751 223.362 36.967 223.558 36.0692 223.558C35.1461 223.558 34.3116 223.33 33.5655 222.875C32.8194 222.42 32.2314 221.781 31.8015 220.959C31.3716 220.137 31.1566 219.202 31.1566 218.152ZM39.9576 218.171C39.9576 217.387 39.7996 216.704 39.4834 216.123C39.1673 215.541 38.7374 215.098 38.1936 214.795C37.6625 214.479 37.0745 214.321 36.4296 214.321C35.7847 214.321 35.1967 214.472 34.6656 214.776C34.1345 215.079 33.7109 215.522 33.3948 216.104C33.0787 216.685 32.9206 217.368 32.9206 218.152C32.9206 218.949 33.0787 219.644 33.3948 220.239C33.7109 220.82 34.1345 221.269 34.6656 221.585C35.1967 221.889 35.7847 222.04 36.4296 222.04C37.0745 222.04 37.6625 221.889 38.1936 221.585C38.7374 221.269 39.1673 220.82 39.4834 220.239C39.7996 219.644 39.9576 218.955 39.9576 218.171ZM43.9746 218.171C43.9746 217.096 44.1896 216.16 44.6195 215.364C45.0495 214.555 45.6438 213.929 46.4025 213.486C47.1739 213.043 48.0527 212.822 49.039 212.822C50.3162 212.822 51.3657 213.132 52.1877 213.752C53.0223 214.371 53.5723 215.231 53.8379 216.331H51.979C51.802 215.699 51.4543 215.199 50.9358 214.833C50.43 214.466 49.7977 214.283 49.039 214.283C48.0527 214.283 47.2561 214.624 46.6491 215.307C46.0421 215.977 45.7386 216.932 45.7386 218.171C45.7386 219.423 46.0421 220.39 46.6491 221.073C47.2561 221.756 48.0527 222.097 49.039 222.097C49.7977 222.097 50.43 221.92 50.9358 221.566C51.4416 221.212 51.7893 220.706 51.979 220.049H53.8379C53.5597 221.111 53.0033 221.965 52.1687 222.61C51.3341 223.242 50.2909 223.558 49.039 223.558C48.0527 223.558 47.1739 223.337 46.4025 222.894C45.6438 222.451 45.0495 221.826 44.6195 221.016C44.1896 220.207 43.9746 219.259 43.9746 218.171ZM57.867 214.681C58.1705 214.087 58.6004 213.625 59.1568 213.296C59.7259 212.968 60.415 212.803 61.2243 212.803V214.586H60.7691C58.8344 214.586 57.867 215.636 57.867 217.735V223.387H56.141V212.993H57.867V214.681ZM67.7501 223.558C66.7764 223.558 65.8913 223.337 65.0946 222.894C64.3106 222.451 63.691 221.826 63.2358 221.016C62.7932 220.194 62.5719 219.246 62.5719 218.171C62.5719 217.109 62.7995 216.173 63.2548 215.364C63.7226 214.542 64.3549 213.916 65.1515 213.486C65.9482 213.043 66.8397 212.822 67.826 212.822C68.8123 212.822 69.7038 213.043 70.5004 213.486C71.2971 213.916 71.923 214.536 72.3782 215.345C72.8461 216.154 73.08 217.096 73.08 218.171C73.08 219.246 72.8398 220.194 72.3593 221.016C71.8914 221.826 71.2528 222.451 70.4435 222.894C69.6342 223.337 68.7364 223.558 67.7501 223.558ZM67.7501 222.04C68.3697 222.04 68.9514 221.895 69.4951 221.604C70.0389 221.313 70.4751 220.877 70.8039 220.295C71.1453 219.714 71.316 219.006 71.316 218.171C71.316 217.336 71.1517 216.628 70.8229 216.047C70.4941 215.465 70.0642 215.035 69.5331 214.757C69.002 214.466 68.4266 214.321 67.807 214.321C67.1748 214.321 66.5931 214.466 66.062 214.757C65.5435 215.035 65.1262 215.465 64.8101 216.047C64.494 216.628 64.3359 217.336 64.3359 218.171C64.3359 219.018 64.4877 219.733 64.7911 220.314C65.1073 220.896 65.5246 221.332 66.043 221.623C66.5615 221.901 67.1305 222.04 67.7501 222.04ZM79.0293 223.558C78.2326 223.558 77.5182 223.425 76.8859 223.16C76.2536 222.881 75.7542 222.502 75.3874 222.022C75.0207 221.528 74.8184 220.966 74.7805 220.333H76.5634C76.614 220.852 76.8543 221.275 77.2842 221.604C77.7268 221.933 78.3022 222.097 79.0103 222.097C79.6678 222.097 80.1863 221.952 80.5656 221.661C80.945 221.37 81.1347 221.004 81.1347 220.561C81.1347 220.106 80.9323 219.771 80.5277 219.556C80.1231 219.328 79.4971 219.107 78.6499 218.892C77.8785 218.69 77.2463 218.487 76.7531 218.285C76.2726 218.07 75.8553 217.76 75.5013 217.355C75.1598 216.938 74.9891 216.394 74.9891 215.724C74.9891 215.193 75.1472 214.706 75.4633 214.264C75.7794 213.821 76.2283 213.473 76.81 213.22C77.3917 212.955 78.0556 212.822 78.8016 212.822C79.9523 212.822 80.8818 213.113 81.5899 213.695C82.298 214.276 82.6774 215.073 82.728 216.085H81.0019C80.964 215.541 80.7427 215.105 80.338 214.776C79.946 214.447 79.4149 214.283 78.7447 214.283C78.1251 214.283 77.632 214.415 77.2653 214.681C76.8985 214.947 76.7152 215.294 76.7152 215.724C76.7152 216.066 76.8227 216.35 77.0376 216.578C77.2653 216.793 77.5434 216.97 77.8722 217.109C78.2136 217.235 78.6815 217.381 79.2758 217.545C80.0219 217.747 80.6289 217.95 81.0967 218.152C81.5646 218.342 81.9629 218.633 82.2917 219.025C82.6331 219.417 82.8102 219.929 82.8228 220.561C82.8228 221.13 82.6647 221.642 82.3486 222.097C82.0325 222.553 81.5836 222.913 81.0019 223.179C80.4329 223.431 79.7753 223.558 79.0293 223.558ZM88.9392 223.558C88.1425 223.558 87.4281 223.425 86.7958 223.16C86.1635 222.881 85.6641 222.502 85.2973 222.022C84.9306 221.528 84.7283 220.966 84.6904 220.333H86.4733C86.5239 220.852 86.7642 221.275 87.1941 221.604C87.6367 221.933 88.2121 222.097 88.9202 222.097C89.5777 222.097 90.0962 221.952 90.4755 221.661C90.8549 221.37 91.0446 221.004 91.0446 220.561C91.0446 220.106 90.8423 219.771 90.4376 219.556C90.033 219.328 89.407 219.107 88.5598 218.892C87.7884 218.69 87.1562 218.487 86.663 218.285C86.1825 218.07 85.7652 217.76 85.4112 217.355C85.0697 216.938 84.899 216.394 84.899 215.724C84.899 215.193 85.0571 214.706 85.3732 214.264C85.6893 213.821 86.1383 213.473 86.7199 213.22C87.3016 212.955 87.9655 212.822 88.7115 212.822C89.8623 212.822 90.7917 213.113 91.4998 213.695C92.2079 214.276 92.5873 215.073 92.6379 216.085H90.9118C90.8739 215.541 90.6526 215.105 90.2479 214.776C89.8559 214.447 89.3248 214.283 88.6546 214.283C88.035 214.283 87.5419 214.415 87.1752 214.681C86.8084 214.947 86.6251 215.294 86.6251 215.724C86.6251 216.066 86.7326 216.35 86.9475 216.578C87.1752 216.793 87.4533 216.97 87.7821 217.109C88.1235 217.235 88.5914 217.381 89.1857 217.545C89.9318 217.747 90.5388 217.95 91.0066 218.152C91.4745 218.342 91.8728 218.633 92.2016 219.025C92.543 219.417 92.7201 219.929 92.7327 220.561C92.7327 221.13 92.5746 221.642 92.2585 222.097C91.9424 222.553 91.4935 222.913 90.9118 223.179C90.3428 223.431 89.6852 223.558 88.9392 223.558ZM104.096 221.794L107.32 212.993H109.16L105.082 223.387H103.071L98.9932 212.993H100.852L104.096 221.794ZM110.214 218.152C110.214 217.09 110.429 216.16 110.858 215.364C111.288 214.555 111.876 213.929 112.622 213.486C113.381 213.043 114.222 212.822 115.145 212.822C116.056 212.822 116.846 213.018 117.516 213.41C118.186 213.802 118.686 214.295 119.015 214.89V212.993H120.76V223.387H119.015V221.452C118.673 222.059 118.161 222.565 117.478 222.97C116.808 223.362 116.024 223.558 115.126 223.558C114.203 223.558 113.369 223.33 112.622 222.875C111.876 222.42 111.288 221.781 110.858 220.959C110.429 220.137 110.214 219.202 110.214 218.152ZM119.015 218.171C119.015 217.387 118.857 216.704 118.54 216.123C118.224 215.541 117.794 215.098 117.251 214.795C116.719 214.479 116.131 214.321 115.487 214.321C114.842 214.321 114.254 214.472 113.723 214.776C113.191 215.079 112.768 215.522 112.452 216.104C112.136 216.685 111.978 217.368 111.978 218.152C111.978 218.949 112.136 219.644 112.452 220.239C112.768 220.82 113.191 221.269 113.723 221.585C114.254 221.889 114.842 222.04 115.487 222.04C116.131 222.04 116.719 221.889 117.251 221.585C117.794 221.269 118.224 220.82 118.54 220.239C118.857 219.644 119.015 218.955 119.015 218.171ZM125.403 214.681C125.706 214.087 126.136 213.625 126.692 213.296C127.261 212.968 127.951 212.803 128.76 212.803V214.586H128.305C126.37 214.586 125.403 215.636 125.403 217.735V223.387H123.676V212.993H125.403V214.681ZM131.644 211.305C131.315 211.305 131.037 211.191 130.809 210.963C130.582 210.736 130.468 210.458 130.468 210.129C130.468 209.8 130.582 209.522 130.809 209.294C131.037 209.067 131.315 208.953 131.644 208.953C131.96 208.953 132.226 209.067 132.44 209.294C132.668 209.522 132.782 209.8 132.782 210.129C132.782 210.458 132.668 210.736 132.44 210.963C132.226 211.191 131.96 211.305 131.644 211.305ZM132.478 212.993V223.387H130.752V212.993H132.478ZM139.953 223.558C138.98 223.558 138.095 223.337 137.298 222.894C136.514 222.451 135.894 221.826 135.439 221.016C134.997 220.194 134.775 219.246 134.775 218.171C134.775 217.109 135.003 216.173 135.458 215.364C135.926 214.542 136.558 213.916 137.355 213.486C138.152 213.043 139.043 212.822 140.029 212.822C141.016 212.822 141.907 213.043 142.704 213.486C143.5 213.916 144.126 214.536 144.582 215.345C145.049 216.154 145.283 217.096 145.283 218.171C145.283 219.246 145.043 220.194 144.563 221.016C144.095 221.826 143.456 222.451 142.647 222.894C141.838 223.337 140.94 223.558 139.953 223.558ZM139.953 222.04C140.573 222.04 141.155 221.895 141.699 221.604C142.242 221.313 142.679 220.877 143.007 220.295C143.349 219.714 143.519 219.006 143.519 218.171C143.519 217.336 143.355 216.628 143.026 216.047C142.697 215.465 142.268 215.035 141.736 214.757C141.205 214.466 140.63 214.321 140.01 214.321C139.378 214.321 138.796 214.466 138.265 214.757C137.747 215.035 137.33 215.465 137.013 216.047C136.697 216.628 136.539 217.336 136.539 218.171C136.539 219.018 136.691 219.733 136.995 220.314C137.311 220.896 137.728 221.332 138.246 221.623C138.765 221.901 139.334 222.04 139.953 222.04ZM156.771 212.993V223.387H155.045V221.851C154.716 222.382 154.255 222.799 153.661 223.103C153.079 223.394 152.434 223.539 151.726 223.539C150.917 223.539 150.189 223.375 149.545 223.046C148.9 222.704 148.387 222.199 148.008 221.528C147.641 220.858 147.458 220.043 147.458 219.082V212.993H149.165V218.854C149.165 219.878 149.424 220.668 149.943 221.225C150.461 221.769 151.169 222.04 152.067 222.04C152.99 222.04 153.717 221.756 154.249 221.187C154.78 220.618 155.045 219.79 155.045 218.702V212.993H156.771ZM163.365 223.558C162.569 223.558 161.854 223.425 161.222 223.16C160.59 222.881 160.09 222.502 159.724 222.022C159.357 221.528 159.154 220.966 159.117 220.333H160.9C160.95 220.852 161.19 221.275 161.62 221.604C162.063 221.933 162.638 222.097 163.346 222.097C164.004 222.097 164.522 221.952 164.902 221.661C165.281 221.37 165.471 221.004 165.471 220.561C165.471 220.106 165.268 219.771 164.864 219.556C164.459 219.328 163.833 219.107 162.986 218.892C162.215 218.69 161.582 218.487 161.089 218.285C160.609 218.07 160.191 217.76 159.837 217.355C159.496 216.938 159.325 216.394 159.325 215.724C159.325 215.193 159.483 214.706 159.799 214.264C160.116 213.821 160.564 213.473 161.146 213.22C161.728 212.955 162.392 212.822 163.138 212.822C164.288 212.822 165.218 213.113 165.926 213.695C166.634 214.276 167.013 215.073 167.064 216.085H165.338C165.3 215.541 165.079 215.105 164.674 214.776C164.282 214.447 163.751 214.283 163.081 214.283C162.461 214.283 161.968 214.415 161.601 214.681C161.235 214.947 161.051 215.294 161.051 215.724C161.051 216.066 161.159 216.35 161.374 216.578C161.601 216.793 161.88 216.97 162.208 217.109C162.55 217.235 163.018 217.381 163.612 217.545C164.358 217.747 164.965 217.95 165.433 218.152C165.901 218.342 166.299 218.633 166.628 219.025C166.969 219.417 167.146 219.929 167.159 220.561C167.159 221.13 167.001 221.642 166.685 222.097C166.369 222.553 165.92 222.913 165.338 223.179C164.769 223.431 164.111 223.558 163.365 223.558ZM175.544 211.305C175.215 211.305 174.937 211.191 174.709 210.963C174.482 210.736 174.368 210.458 174.368 210.129C174.368 209.8 174.482 209.522 174.709 209.294C174.937 209.067 175.215 208.953 175.544 208.953C175.86 208.953 176.125 209.067 176.34 209.294C176.568 209.522 176.682 209.8 176.682 210.129C176.682 210.458 176.568 210.736 176.34 210.963C176.125 211.191 175.86 211.305 175.544 211.305ZM176.378 212.993V223.387H174.652V212.993H176.378ZM184.385 212.803C185.649 212.803 186.673 213.189 187.457 213.96C188.241 214.719 188.633 215.819 188.633 217.261V223.387H186.926V217.507C186.926 216.47 186.667 215.68 186.149 215.136C185.63 214.58 184.922 214.302 184.024 214.302C183.114 214.302 182.387 214.586 181.843 215.155C181.312 215.724 181.046 216.552 181.046 217.64V223.387H179.32V212.993H181.046V214.472C181.388 213.941 181.849 213.53 182.431 213.239C183.025 212.949 183.676 212.803 184.385 212.803ZM190.808 218.152C190.808 217.09 191.023 216.16 191.453 215.364C191.883 214.555 192.471 213.929 193.217 213.486C193.976 213.043 194.823 212.822 195.759 212.822C196.568 212.822 197.32 213.012 198.016 213.391C198.711 213.758 199.242 214.245 199.609 214.852V209.351H201.354V223.387H199.609V221.434C199.268 222.053 198.762 222.565 198.092 222.97C197.421 223.362 196.637 223.558 195.74 223.558C194.816 223.558 193.976 223.33 193.217 222.875C192.471 222.42 191.883 221.781 191.453 220.959C191.023 220.137 190.808 219.202 190.808 218.152ZM199.609 218.171C199.609 217.387 199.451 216.704 199.135 216.123C198.819 215.541 198.389 215.098 197.845 214.795C197.314 214.479 196.726 214.321 196.081 214.321C195.436 214.321 194.848 214.472 194.317 214.776C193.786 215.079 193.362 215.522 193.046 216.104C192.73 216.685 192.572 217.368 192.572 218.152C192.572 218.949 192.73 219.644 193.046 220.239C193.362 220.82 193.786 221.269 194.317 221.585C194.848 221.889 195.436 222.04 196.081 222.04C196.726 222.04 197.314 221.889 197.845 221.585C198.389 221.269 198.819 220.82 199.135 220.239C199.451 219.644 199.609 218.955 199.609 218.171ZM213.489 212.993V223.387H211.763V221.851C211.434 222.382 210.973 222.799 210.378 223.103C209.797 223.394 209.152 223.539 208.444 223.539C207.634 223.539 206.907 223.375 206.262 223.046C205.618 222.704 205.105 222.199 204.726 221.528C204.359 220.858 204.176 220.043 204.176 219.082V212.993H205.883V218.854C205.883 219.878 206.142 220.668 206.661 221.225C207.179 221.769 207.887 222.04 208.785 222.04C209.708 222.04 210.435 221.756 210.966 221.187C211.498 220.618 211.763 219.79 211.763 218.702V212.993H213.489ZM220.083 223.558C219.287 223.558 218.572 223.425 217.94 223.16C217.308 222.881 216.808 222.502 216.442 222.022C216.075 221.528 215.872 220.966 215.835 220.333H217.618C217.668 220.852 217.908 221.275 218.338 221.604C218.781 221.933 219.356 222.097 220.064 222.097C220.722 222.097 221.24 221.952 221.62 221.661C221.999 221.37 222.189 221.004 222.189 220.561C222.189 220.106 221.986 219.771 221.582 219.556C221.177 219.328 220.551 219.107 219.704 218.892C218.933 218.69 218.3 218.487 217.807 218.285C217.327 218.07 216.909 217.76 216.555 217.355C216.214 216.938 216.043 216.394 216.043 215.724C216.043 215.193 216.201 214.706 216.517 214.264C216.834 213.821 217.282 213.473 217.864 213.22C218.446 212.955 219.11 212.822 219.856 212.822C221.006 212.822 221.936 213.113 222.644 213.695C223.352 214.276 223.731 215.073 223.782 216.085H222.056C222.018 215.541 221.797 215.105 221.392 214.776C221 214.447 220.469 214.283 219.799 214.283C219.179 214.283 218.686 214.415 218.319 214.681C217.953 214.947 217.769 215.294 217.769 215.724C217.769 216.066 217.877 216.35 218.092 216.578C218.319 216.793 218.598 216.97 218.926 217.109C219.268 217.235 219.736 217.381 220.33 217.545C221.076 217.747 221.683 217.95 222.151 218.152C222.619 218.342 223.017 218.633 223.346 219.025C223.687 219.417 223.864 219.929 223.877 220.561C223.877 221.13 223.719 221.642 223.403 222.097C223.087 222.553 222.638 222.913 222.056 223.179C221.487 223.431 220.829 223.558 220.083 223.558ZM228.419 214.415V220.542C228.419 221.048 228.526 221.408 228.741 221.623C228.956 221.826 229.329 221.927 229.86 221.927H231.131V223.387H229.576C228.615 223.387 227.894 223.166 227.414 222.723C226.933 222.281 226.693 221.554 226.693 220.542V214.415H225.346V212.993H226.693V210.375H228.419V212.993H231.131V214.415H228.419ZM234.949 214.681C235.252 214.087 235.682 213.625 236.239 213.296C236.808 212.968 237.497 212.803 238.306 212.803V214.586H237.851C235.916 214.586 234.949 215.636 234.949 217.735V223.387H233.223V212.993H234.949V214.681ZM241.19 211.305C240.861 211.305 240.583 211.191 240.355 210.963C240.128 210.736 240.014 210.458 240.014 210.129C240.014 209.8 240.128 209.522 240.355 209.294C240.583 209.067 240.861 208.953 241.19 208.953C241.506 208.953 241.772 209.067 241.987 209.294C242.214 209.522 242.328 209.8 242.328 210.129C242.328 210.458 242.214 210.736 241.987 210.963C241.772 211.191 241.506 211.305 241.19 211.305ZM242.025 212.993V223.387H240.298V212.993H242.025ZM254.45 217.792C254.45 218.12 254.431 218.468 254.393 218.835H246.085C246.149 219.859 246.496 220.662 247.129 221.244C247.774 221.813 248.551 222.097 249.462 222.097C250.208 222.097 250.827 221.927 251.321 221.585C251.826 221.231 252.18 220.763 252.383 220.182H254.242C253.963 221.181 253.407 221.996 252.572 222.628C251.738 223.248 250.701 223.558 249.462 223.558C248.475 223.558 247.59 223.337 246.806 222.894C246.035 222.451 245.428 221.826 244.985 221.016C244.543 220.194 244.321 219.246 244.321 218.171C244.321 217.096 244.536 216.154 244.966 215.345C245.396 214.536 245.997 213.916 246.768 213.486C247.552 213.043 248.45 212.822 249.462 212.822C250.448 212.822 251.321 213.037 252.079 213.467C252.838 213.897 253.42 214.491 253.824 215.25C254.242 215.996 254.45 216.843 254.45 217.792ZM252.667 217.431C252.667 216.774 252.522 216.211 252.231 215.743C251.94 215.263 251.542 214.902 251.036 214.662C250.543 214.409 249.993 214.283 249.386 214.283C248.513 214.283 247.767 214.561 247.148 215.117C246.541 215.674 246.193 216.445 246.104 217.431H252.667ZM260.408 223.558C259.612 223.558 258.897 223.425 258.265 223.16C257.633 222.881 257.133 222.502 256.766 222.022C256.4 221.528 256.197 220.966 256.16 220.333H257.942C257.993 220.852 258.233 221.275 258.663 221.604C259.106 221.933 259.681 222.097 260.389 222.097C261.047 222.097 261.565 221.952 261.945 221.661C262.324 221.37 262.514 221.004 262.514 220.561C262.514 220.106 262.311 219.771 261.907 219.556C261.502 219.328 260.876 219.107 260.029 218.892C259.258 218.69 258.625 218.487 258.132 218.285C257.652 218.07 257.234 217.76 256.88 217.355C256.539 216.938 256.368 216.394 256.368 215.724C256.368 215.193 256.526 214.706 256.842 214.264C257.158 213.821 257.607 213.473 258.189 213.22C258.771 212.955 259.435 212.822 260.181 212.822C261.331 212.822 262.261 213.113 262.969 213.695C263.677 214.276 264.056 215.073 264.107 216.085H262.381C262.343 215.541 262.122 215.105 261.717 214.776C261.325 214.447 260.794 214.283 260.124 214.283C259.504 214.283 259.011 214.415 258.644 214.681C258.278 214.947 258.094 215.294 258.094 215.724C258.094 216.066 258.202 216.35 258.417 216.578C258.644 216.793 258.922 216.97 259.251 217.109C259.593 217.235 260.061 217.381 260.655 217.545C261.401 217.747 262.008 217.95 262.476 218.152C262.944 218.342 263.342 218.633 263.671 219.025C264.012 219.417 264.189 219.929 264.202 220.561C264.202 221.13 264.044 221.642 263.728 222.097C263.412 222.553 262.963 222.913 262.381 223.179C261.812 223.431 261.154 223.558 260.408 223.558ZM267.189 223.501C266.86 223.501 266.582 223.387 266.354 223.16C266.126 222.932 266.013 222.654 266.013 222.325C266.013 221.996 266.126 221.718 266.354 221.49C266.582 221.263 266.86 221.149 267.189 221.149C267.505 221.149 267.77 221.263 267.985 221.49C268.213 221.718 268.327 221.996 268.327 222.325C268.327 222.654 268.213 222.932 267.985 223.16C267.77 223.387 267.505 223.501 267.189 223.501Z" fill="black"/>
<ellipse cx="128.667" cy="59.4676" rx="59.425" ry="59.2742" fill="#F9F5F5"/>
<path d="M92.98 161.226H88.8308L79.4359 147.029V161.226H75.2867V140.509H79.4359L88.8308 154.735V140.509H92.98V161.226ZM112.343 152.66C112.343 153.253 112.304 153.787 112.225 154.261H100.222C100.321 155.446 100.736 156.375 101.467 157.047C102.198 157.719 103.097 158.054 104.164 158.054C105.705 158.054 106.801 157.393 107.453 156.069H111.929C111.454 157.649 110.545 158.953 109.202 159.981C107.858 160.988 106.209 161.492 104.253 161.492C102.672 161.492 101.249 161.147 99.9848 160.455C98.74 159.744 97.762 158.746 97.0507 157.462C96.3592 156.177 96.0134 154.696 96.0134 153.016C96.0134 151.317 96.3592 149.825 97.0507 148.541C97.7422 147.257 98.7104 146.269 99.9551 145.577C101.2 144.886 102.632 144.54 104.253 144.54C105.813 144.54 107.206 144.876 108.431 145.548C109.676 146.219 110.634 147.178 111.306 148.422C111.998 149.647 112.343 151.06 112.343 152.66ZM108.046 151.475C108.026 150.408 107.641 149.558 106.89 148.926C106.139 148.274 105.221 147.948 104.134 147.948C103.107 147.948 102.237 148.264 101.526 148.897C100.834 149.509 100.41 150.369 100.252 151.475H108.046ZM120.203 148.215V156.158C120.203 156.711 120.331 157.116 120.588 157.373C120.865 157.61 121.319 157.728 121.951 157.728H123.878V161.226H121.27C117.773 161.226 116.024 159.526 116.024 156.128V148.215H114.068V144.807H116.024V140.746H120.203V144.807H123.878V148.215H120.203ZM149.623 144.807L144.822 161.226H140.347L137.354 149.756L134.36 161.226H129.856L125.025 144.807H129.233L132.138 157.313L135.279 144.807H139.665L142.748 157.284L145.652 144.807H149.623ZM159.159 161.492C157.579 161.492 156.156 161.147 154.891 160.455C153.627 159.744 152.629 158.746 151.898 157.462C151.187 156.177 150.831 154.696 150.831 153.016C150.831 151.337 151.197 149.855 151.928 148.571C152.679 147.286 153.696 146.298 154.98 145.607C156.265 144.896 157.697 144.54 159.278 144.54C160.858 144.54 162.291 144.896 163.575 145.607C164.859 146.298 165.867 147.286 166.598 148.571C167.349 149.855 167.724 151.337 167.724 153.016C167.724 154.696 167.339 156.177 166.568 157.462C165.818 158.746 164.79 159.744 163.486 160.455C162.202 161.147 160.76 161.492 159.159 161.492ZM159.159 157.877C159.91 157.877 160.611 157.699 161.263 157.343C161.935 156.968 162.469 156.414 162.864 155.683C163.259 154.952 163.457 154.063 163.457 153.016C163.457 151.455 163.042 150.26 162.212 149.43C161.402 148.58 160.404 148.156 159.218 148.156C158.033 148.156 157.035 148.58 156.225 149.43C155.435 150.26 155.04 151.455 155.04 153.016C155.04 154.577 155.425 155.782 156.195 156.632C156.986 157.462 157.974 157.877 159.159 157.877ZM174.917 147.355C175.451 146.486 176.142 145.804 176.992 145.31C177.861 144.817 178.849 144.57 179.955 144.57V148.926H178.859C177.555 148.926 176.567 149.232 175.895 149.845C175.243 150.457 174.917 151.524 174.917 153.046V161.226H170.768V144.807H174.917V147.355ZM192.471 161.226L186.899 154.231V161.226H182.75V139.294H186.899V151.771L192.412 144.807H197.806L190.574 153.046L197.865 161.226H192.471Z" fill="black"/>
</svg>
